Coordinates
version=1
nRows=36
nColumns=34
inDegrees=no

Units are S.I. units (second, meters, Newtons, ...)
If the header above contains a line with 'inDegrees', this indicates whether rotational values are in degrees (yes) or radians (no).

endheader
time	pelvis_tilt	pelvis_list	pelvis_rotation	pelvis_tx	pelvis_ty	pelvis_tz	hip_flexion_r	hip_adduction_r	hip_rotation_r	knee_angle_r	ankle_angle_r	subtalar_angle_r	mtp_angle_r	hip_flexion_l	hip_adduction_l	hip_rotation_l	knee_angle_l	ankle_angle_l	subtalar_angle_l	mtp_angle_l	lumbar_extension	lumbar_bending	lumbar_rotation	arm_flex_r	arm_add_r	arm_rot_r	elbow_flex_r	pro_sup_r	arm_flex_l	arm_add_l	arm_rot_l	elbow_flex_l	pro_sup_l
0.199751	-0.0393016	-0.0208194	-0.0179638	-0.0365434	0.950243	0.00773181	0.513095	-0.148807	-0.0829809	1.33744	0.104614	-0.12773	0.0920253	0.234979	-0.106619	-0.168236	0.827899	0.4246	0.04519	0.0238781	-0.27974	-0.0977671	-0.0785123	-0.124536	-0.193751	-0.0264799	1.35104	0.860958	0.0772749	-0.198881	-0.103436	1.65499	0.782934
0.200749	-0.04008	-0.0217132	-0.0181332	-0.0365756	0.950646	0.00778837	0.515333	-0.147525	-0.0846374	1.33318	0.105809	-0.126857	0.092435	0.232136	-0.107436	-0.168642	0.825144	0.421894	0.0459955	0.0271367	-0.27904	-0.0965706	-0.0796858	-0.127812	-0.194887	-0.0275889	1.35253	0.860632	0.0794188	-0.196459	-0.102133	1.65801	0.783491
0.201748	-0.0408754	-0.0226108	-0.0183044	-0.036605	0.951056	0.00784613	0.517553	-0.146236	-0.0863148	1.32883	0.106973	-0.125968	0.0928448	0.229305	-0.108259	-0.169058	0.82236	0.419112	0.0467985	0.030442	-0.278315	-0.0953665	-0.0808549	-0.131094	-0.196022	-0.0287056	1.35404	0.860305	0.0815346	-0.19405	-0.100817	1.66104	0.784048
0.202747	-0.0416875	-0.023512	-0.0184776	-0.0366318	0.95147	0.00790513	0.519756	-0.144938	-0.0880126	1.3244	0.108105	-0.125062	0.0932547	0.226488	-0.109088	-0.169485	0.819549	0.416252	0.0475992	0.0337934	-0.277566	-0.094155	-0.0820199	-0.134382	-0.197157	-0.0298299	1.35559	0.859977	0.0836221	-0.191654	-0.0994872	1.66408	0.784605
0.203746	-0.0425164	-0.0244165	-0.0186526	-0.0366558	0.95189	0.0079654	0.521941	-0.143633	-0.0897301	1.31988	0.109204	-0.12414	0.0936645	0.223684	-0.109922	-0.169923	0.816712	0.413316	0.0483974	0.0371906	-0.276793	-0.0929364	-0.0831808	-0.137674	-0.19829	-0.030962	1.35716	0.859647	0.0856812	-0.189272	-0.0981441	1.66713	0.785163
0.204744	-0.0433618	-0.0253243	-0.0188296	-0.0366772	0.952316	0.00802697	0.524107	-0.14232	-0.0914668	1.31527	0.110269	-0.1232	0.0940741	0.220896	-0.110762	-0.170371	0.81385	0.410304	0.0491931	0.040633	-0.275995	-0.091711	-0.0843379	-0.140971	-0.199421	-0.0321019	1.35875	0.859316	0.0877115	-0.186904	-0.0967876	1.67018	0.785721
0.205743	-0.0442238	-0.026235	-0.0190084	-0.0366959	0.952746	0.00808989	0.526256	-0.140999	-0.0932219	1.31058	0.111302	-0.122244	0.0944833	0.218122	-0.111608	-0.17083	0.810964	0.407215	0.0499864	0.04412	-0.275174	-0.0904792	-0.0854913	-0.144272	-0.20055	-0.0332498	1.36036	0.858983	0.089713	-0.184553	-0.0954176	1.67323	0.786279
0.206742	-0.0451021	-0.0271485	-0.0191891	-0.036712	0.953181	0.00815417	0.528386	-0.13967	-0.094995	1.30581	0.112301	-0.12127	0.0948921	0.215363	-0.11246	-0.1713	0.808055	0.404051	0.0507772	0.047651	-0.274329	-0.0892412	-0.0866412	-0.147575	-0.201676	-0.0344056	1.362	0.858649	0.0916853	-0.182217	-0.0940341	1.6763	0.786839
0.207741	-0.0459966	-0.0280646	-0.0193716	-0.0367254	0.953621	0.00821986	0.530498	-0.138333	-0.0967854	1.30095	0.113266	-0.120279	0.0953003	0.212621	-0.113317	-0.17178	0.805124	0.400812	0.0515655	0.0512254	-0.273461	-0.0879974	-0.0877878	-0.15088	-0.202799	-0.0355694	1.36366	0.858313	0.0936282	-0.179899	-0.0926372	1.67936	0.787398
0.208739	-0.0469074	-0.0289832	-0.0195559	-0.0367363	0.954066	0.00828699	0.532591	-0.136988	-0.0985925	1.29601	0.114196	-0.11927	0.0957077	0.209895	-0.114181	-0.172272	0.802172	0.397497	0.0523514	0.0548427	-0.272569	-0.086748	-0.0889312	-0.154186	-0.203918	-0.0367412	1.36533	0.857976	0.0955416	-0.177598	-0.0912269	1.68244	0.787958
0.209738	-0.0478341	-0.029904	-0.019742	-0.0367446	0.954515	0.00835557	0.534666	-0.135636	-0.100416	1.29098	0.115092	-0.118244	0.0961142	0.207186	-0.11505	-0.172775	0.7992	0.394108	0.0531347	0.0585019	-0.271655	-0.0854934	-0.0900718	-0.157493	-0.205033	-0.0379209	1.36702	0.857637	0.0974251	-0.175317	-0.0898033	1.68551	0.788518
0.210737	-0.0487768	-0.0308267	-0.0199298	-0.0367504	0.954968	0.00842563	0.536722	-0.134275	-0.102254	1.28588	0.115953	-0.117199	0.0965196	0.204494	-0.115925	-0.173289	0.79621	0.390644	0.0539156	0.0622025	-0.270719	-0.0842338	-0.0912097	-0.1608	-0.206144	-0.0391087	1.36873	0.857297	0.0992786	-0.173054	-0.0883665	1.68859	0.789079
0.211736	-0.0497352	-0.0317514	-0.0201192	-0.0367537	0.955426	0.0084972	0.538759	-0.132907	-0.104108	1.28069	0.116778	-0.116136	0.0969239	0.201821	-0.116807	-0.173813	0.793202	0.387106	0.054694	0.0659437	-0.26976	-0.0829695	-0.092345	-0.164106	-0.207249	-0.0403045	1.37045	0.856955	0.101102	-0.170811	-0.0869164	1.69167	0.78964
0.212734	-0.0507093	-0.0326776	-0.0203102	-0.0367545	0.955887	0.0085703	0.540777	-0.13153	-0.105976	1.27542	0.117568	-0.115054	0.0973268	0.199165	-0.117694	-0.174349	0.790177	0.383496	0.05547	0.0697246	-0.268779	-0.0817008	-0.0934781	-0.16741	-0.208349	-0.0415082	1.37219	0.856611	0.102895	-0.16859	-0.0854533	1.69476	0.790201
0.213733	-0.0516989	-0.0336054	-0.0205027	-0.0367529	0.956353	0.00864496	0.542777	-0.130146	-0.107857	1.27007	0.118322	-0.113954	0.0977283	0.196529	-0.118587	-0.174896	0.787137	0.379812	0.0562434	0.0735443	-0.267776	-0.080428	-0.0946091	-0.170713	-0.209442	-0.0427199	1.37394	0.856265	0.104657	-0.166389	-0.0839771	1.69784	0.790763
0.214732	-0.052704	-0.0345344	-0.0206967	-0.0367489	0.956822	0.00872118	0.544757	-0.128754	-0.109752	1.26464	0.119039	-0.112834	0.0981281	0.193912	-0.119486	-0.175453	0.784082	0.376055	0.0570144	0.0774021	-0.266752	-0.0791514	-0.0957382	-0.174012	-0.21053	-0.0439395	1.3757	0.855918	0.106389	-0.164211	-0.082488	1.70093	0.791325
0.21573	-0.0537242	-0.0354645	-0.020892	-0.0367424	0.957295	0.00879899	0.546718	-0.127354	-0.111659	1.25914	0.11972	-0.111696	0.0985262	0.191314	-0.120391	-0.176022	0.781014	0.372227	0.0577829	0.0812968	-0.265707	-0.0778713	-0.0968657	-0.177308	-0.21161	-0.0451671	1.37747	0.855569	0.108089	-0.162056	-0.0809861	1.70402	0.791887
0.216729	-0.0547596	-0.0363955	-0.0210886	-0.0367337	0.957772	0.0088784	0.548661	-0.125946	-0.113578	1.25355	0.120364	-0.110538	0.0989223	0.188737	-0.121302	-0.176601	0.777934	0.368327	0.0585489	0.0852277	-0.264641	-0.0765878	-0.0979917	-0.1806	-0.212684	-0.0464026	1.37925	0.855218	0.109759	-0.159924	-0.0794714	1.7071	0.792449
0.217728	-0.05581	-0.0373272	-0.0212863	-0.0367226	0.958252	0.00895942	0.550584	-0.124531	-0.115508	1.24789	0.12097	-0.10936	0.0993164	0.18618	-0.122219	-0.177192	0.774842	0.364356	0.0593124	0.0891936	-0.263554	-0.0753014	-0.0991165	-0.183887	-0.213749	-0.0476459	1.38103	0.854866	0.111397	-0.157816	-0.0779442	1.71019	0.793011
0.218727	-0.0568751	-0.0382595	-0.0214852	-0.0367092	0.958735	0.00904206	0.552487	-0.123107	-0.117449	1.24215	0.12154	-0.108163	0.0997082	0.183645	-0.123142	-0.177793	0.771741	0.360315	0.0600735	0.0931935	-0.262447	-0.0740121	-0.10024	-0.187169	-0.214807	-0.0488971	1.38283	0.854511	0.113005	-0.155733	-0.0764044	1.71328	0.793574
0.219725	-0.0579549	-0.0391921	-0.021685	-0.0366935	0.959221	0.00912634	0.554372	-0.121677	-0.1194	1.23634	0.122072	-0.106945	0.100098	0.181131	-0.12407	-0.178405	0.76863	0.356205	0.0608321	0.0972263	-0.261321	-0.0727204	-0.101363	-0.190445	-0.215857	-0.0501561	1.38463	0.854155	0.11458	-0.153676	-0.0748521	1.71637	0.794136
0.220724	-0.0590492	-0.0401249	-0.0218858	-0.0366757	0.95971	0.00921226	0.556237	-0.120238	-0.12136	1.23045	0.122565	-0.105707	0.100485	0.178639	-0.125005	-0.179028	0.765511	0.352025	0.0615881	0.101291	-0.260174	-0.0714265	-0.102485	-0.193714	-0.216898	-0.0514228	1.38644	0.853797	0.116124	-0.151644	-0.0732876	1.71945	0.794698
0.221723	-0.0601578	-0.0410577	-0.0220873	-0.0366556	0.960201	0.00929983	0.558082	-0.118792	-0.123329	1.22449	0.123021	-0.104449	0.100869	0.176169	-0.125946	-0.179661	0.762385	0.347777	0.0623417	0.105386	-0.259008	-0.0701306	-0.103607	-0.196976	-0.217929	-0.0526974	1.38825	0.853437	0.117637	-0.149639	-0.0717109	1.72253	0.795259
0.222722	-0.0612806	-0.0419903	-0.0222895	-0.0366333	0.960696	0.00938904	0.559908	-0.117338	-0.125306	1.21845	0.123438	-0.10317	0.10125	0.173723	-0.126892	-0.180305	0.759253	0.343461	0.0630927	0.109511	-0.257823	-0.0688329	-0.104728	-0.20023	-0.218952	-0.0539797	1.39006	0.853075	0.119118	-0.147662	-0.0701221	1.72561	0.795821
0.22372	-0.0624174	-0.0429225	-0.0224922	-0.0366089	0.961192	0.00947991	0.561715	-0.115878	-0.127291	1.21235	0.123817	-0.101871	0.101629	0.171299	-0.127845	-0.180959	0.756116	0.339078	0.0638413	0.113663	-0.25662	-0.0675337	-0.105849	-0.203476	-0.219965	-0.0552697	1.39188	0.852712	0.120567	-0.145712	-0.0685214	1.72869	0.796382
0.224719	-0.0635679	-0.0438542	-0.0226954	-0.0365824	0.961691	0.00957243	0.563502	-0.114409	-0.129283	1.20617	0.124157	-0.10055	0.102004	0.168899	-0.128803	-0.181624	0.752976	0.334629	0.0645872	0.117843	-0.255398	-0.0662333	-0.10697	-0.206713	-0.220967	-0.0565674	1.3937	0.852347	0.121984	-0.14379	-0.0669088	1.73176	0.796942
0.225718	-0.0647321	-0.0447852	-0.0228989	-0.0365538	0.962193	0.0096666	0.565269	-0.112934	-0.131281	1.19992	0.124458	-0.0992084	0.102376	0.166522	-0.129767	-0.182299	0.749832	0.330115	0.0653306	0.122048	-0.254158	-0.0649319	-0.108092	-0.209941	-0.22196	-0.0578727	1.39552	0.851979	0.12337	-0.141898	-0.0652845	1.73483	0.797502
0.226717	-0.0659096	-0.0457153	-0.0231027	-0.0365232	0.962696	0.00976242	0.567017	-0.111451	-0.133285	1.1936	0.12472	-0.0978452	0.102745	0.16417	-0.130736	-0.182984	0.746687	0.325535	0.0660714	0.126277	-0.2529	-0.0636296	-0.109213	-0.213159	-0.222941	-0.0591857	1.39734	0.85161	0.124723	-0.140034	-0.0636487	1.7379	0.798061
0.227715	-0.0671004	-0.0466444	-0.0233065	-0.0364905	0.963201	0.00985988	0.568745	-0.109961	-0.135295	1.18722	0.124942	-0.0964604	0.10311	0.161842	-0.131712	-0.183679	0.743542	0.320892	0.0668096	0.130529	-0.251624	-0.0623268	-0.110335	-0.216367	-0.223912	-0.0605063	1.39916	0.85124	0.126045	-0.138201	-0.0620014	1.74095	0.798619
0.228714	-0.0683042	-0.0475722	-0.0235103	-0.0364559	0.963708	0.00995898	0.570454	-0.108464	-0.137308	1.18076	0.125125	-0.0950539	0.103471	0.15954	-0.132693	-0.184385	0.740397	0.316186	0.0675452	0.134802	-0.250331	-0.0610237	-0.111457	-0.219564	-0.224871	-0.0618344	1.40098	0.850867	0.127335	-0.136398	-0.0603428	1.74401	0.799176
0.229713	-0.0695209	-0.0484986	-0.023714	-0.0364193	0.964216	0.0100597	0.572143	-0.106961	-0.139326	1.17424	0.125268	-0.0936256	0.103828	0.157263	-0.13368	-0.185099	0.737253	0.311417	0.068278	0.139095	-0.249022	-0.0597204	-0.11258	-0.22275	-0.225819	-0.0631701	1.4028	0.850493	0.128594	-0.134625	-0.0586731	1.74706	0.799731
0.230712	-0.0707501	-0.0494234	-0.0239174	-0.0363807	0.964726	0.0101621	0.573812	-0.10545	-0.141347	1.16766	0.125371	-0.0921753	0.104181	0.155011	-0.134672	-0.185824	0.734112	0.306587	0.0690082	0.143406	-0.247695	-0.0584172	-0.113704	-0.225924	-0.226755	-0.0645132	1.40461	0.850117	0.12982	-0.132884	-0.0569924	1.7501	0.800285
0.23171	-0.0719917	-0.0503465	-0.0241204	-0.0363403	0.965237	0.010266	0.575461	-0.103933	-0.143371	1.16101	0.125434	-0.0907028	0.10453	0.152785	-0.13567	-0.186558	0.730975	0.301697	0.0697356	0.147733	-0.246353	-0.0571144	-0.114828	-0.229086	-0.227679	-0.0658639	1.40642	0.849739	0.131015	-0.131174	-0.0553009	1.75313	0.800838
0.232709	-0.0732455	-0.0512677	-0.0243228	-0.036298	0.965749	0.0103716	0.577091	-0.102409	-0.145397	1.1543	0.125457	-0.0892081	0.104875	0.150586	-0.136673	-0.187301	0.727842	0.296747	0.0704602	0.152076	-0.244994	-0.055812	-0.115954	-0.232236	-0.228591	-0.067222	1.40823	0.849359	0.132178	-0.129497	-0.0535986	1.75616	0.801389
0.233708	-0.0745112	-0.0521867	-0.0245246	-0.0362538	0.966263	0.0104787	0.578701	-0.100879	-0.147425	1.14753	0.12544	-0.087691	0.105215	0.148412	-0.137682	-0.188054	0.724715	0.291739	0.0711819	0.156432	-0.24362	-0.0545103	-0.11708	-0.235373	-0.229491	-0.0685875	1.41003	0.848978	0.133309	-0.127852	-0.0518859	1.75917	0.801938
0.234707	-0.0757887	-0.0531036	-0.0247257	-0.0362078	0.966777	0.0105874	0.580291	-0.0993425	-0.149453	1.14069	0.125382	-0.0861514	0.10555	0.146266	-0.138696	-0.188816	0.721594	0.286674	0.0719008	0.1608	-0.242231	-0.0532096	-0.118208	-0.238497	-0.230377	-0.0699603	1.41183	0.848595	0.134409	-0.126239	-0.0501628	1.76218	0.802485
